<svg width="60" height="60" viewBox="0 0 60 60" fill="none" xmlns="http://www.w3.org/2000/svg">
<path d="M59.6736 58.1094L51.7536 19.8295C51.6282 19.2222 51.087 18.7801 50.46 18.7801H9.53998C8.91298 18.7801 8.37178 19.2222 8.24638 19.8295L0.32638 58.1094C0.24718 58.4988 0.34618 58.9015 0.59698 59.2117C0.84778 59.5219 1.22398 59.7001 1.61998 59.7001H58.38C58.776 59.7001 59.1522 59.5219 59.403 59.2117C59.6538 58.9081 59.7528 58.4988 59.6736 58.1094ZM52.7964 37.9201C52.7832 37.9201 52.7766 37.9201 52.77 37.9201H31.32V21.42H49.3842L52.7964 37.9201ZM10.6158 21.42H28.68V37.9201H7.22998C7.21678 37.9201 7.21018 37.9201 7.20358 37.9201L10.6158 21.42ZM6.68218 40.4347C6.84718 40.5138 7.03198 40.5601 7.22998 40.5601H28.68V57.0601H3.24358L6.68218 40.4347ZM31.32 57.0601V40.5601H52.77C52.968 40.5601 53.1528 40.5138 53.3178 40.4347L56.7564 57.0601H31.32ZM34.62 7.56005C36.4416 7.56005 37.92 9.03845 37.92 10.86C37.92 11.586 38.514 12.18 39.24 12.18C39.966 12.18 40.56 11.586 40.56 10.86C40.56 9.03845 42.0384 7.56005 43.86 7.56005C44.586 7.56005 45.18 6.96605 45.18 6.24005C45.18 5.51405 44.586 4.92005 43.86 4.92005C42.0384 4.92005 40.56 3.44165 40.56 1.62005C40.56 0.894049 39.966 0.300049 39.24 0.300049C38.514 0.300049 37.92 0.894049 37.92 1.62005C37.92 3.44165 36.4416 4.92005 34.62 4.92005C33.894 4.92005 33.3 5.51405 33.3 6.24005C33.3 6.96605 33.894 7.56005 34.62 7.56005ZM39.24 5.34245C39.504 5.67245 39.8076 5.96945 40.1376 6.24005C39.8076 6.50405 39.5106 6.80765 39.24 7.13765C38.976 6.80765 38.6724 6.51065 38.3424 6.24005C38.6724 5.97605 38.976 5.67245 39.24 5.34245ZM16.14 10.2C17.9616 10.2 19.44 11.6784 19.44 13.5C19.44 14.226 20.034 14.82 20.76 14.82C21.486 14.82 22.08 14.226 22.08 13.5C22.08 11.6784 23.5584 10.2 25.38 10.2C26.106 10.2 26.7 9.60605 26.7 8.88005C26.7 8.15405 26.106 7.56005 25.38 7.56005C23.5584 7.56005 22.08 6.08165 22.08 4.26005C22.08 3.53405 21.486 2.94005 20.76 2.94005C20.034 2.94005 19.44 3.53405 19.44 4.26005C19.44 6.08165 17.9616 7.56005 16.14 7.56005C15.414 7.56005 14.82 8.15405 14.82 8.88005C14.82 9.60605 15.414 10.2 16.14 10.2ZM20.76 7.98245C21.024 8.31245 21.3276 8.60945 21.6576 8.88005C21.3276 9.14405 21.0306 9.44765 20.76 9.77765C20.496 9.44765 20.1924 9.15065 19.8624 8.88005C20.1924 8.61605 20.496 8.31245 20.76 7.98245Z" fill="white"/>
</svg>
