<svg width="54" height="66" viewBox="0 0 54 66" fill="none" xmlns="http://www.w3.org/2000/svg">
<path d="M46.4491 11.6738C46.5074 8.70101 45.4086 5.82188 43.3845 3.64388C41.3604 1.46588 38.5694 0.159356 35.6004 2.99471e-06C33.6238 -0.00153244 31.6918 0.587393 30.0522 1.69125C27.976 0.585224 25.6604 0.00455801 23.3079 2.99471e-06C19.9739 0.108399 16.7584 1.26194 14.1158 3.29754C11.4732 5.33315 9.53724 8.14785 8.58162 11.3438C6.08652 12.0909 3.90936 13.6438 2.39056 15.7597C0.871749 17.8756 0.0969263 20.4351 0.187241 23.0381C0.0449307 26.0679 1.10503 29.0312 3.13682 31.2831C5.16862 33.5351 8.00763 34.8934 11.036 35.0625H17.2854L9.94287 48.4069C9.87772 48.5199 9.84225 48.6477 9.83974 48.7781C9.82282 48.8243 9.8158 48.8735 9.81912 48.9225L8.97349 57.3788V57.4613L8.27224 64.4531C8.25222 64.6529 8.29263 64.854 8.38824 65.0305C8.48385 65.207 8.63025 65.3508 8.80849 65.4431C8.98642 65.5366 9.18698 65.5785 9.38746 65.5639C9.58794 65.5493 9.78034 65.4789 9.94287 65.3606L15.5116 61.0088L22.1941 55.77C22.367 55.6899 22.5059 55.551 22.586 55.3781L33.7854 35.0625H42.9635C45.9918 34.8934 48.8309 33.5351 50.8627 31.2831C52.8944 29.0312 53.9546 26.0679 53.8122 23.0381C53.8748 20.6222 53.205 18.2438 51.8909 16.2155C50.5767 14.1872 48.6797 12.6039 46.4491 11.6738ZM19.6572 35.0625H24.3597L15.8622 50.49L12.2529 48.51L19.6572 35.0625ZM10.5616 62.2463L10.9122 58.6493C11.8477 58.8816 12.7056 59.3561 13.3996 60.0249L10.5616 62.2463ZM15.0372 58.74L15.0166 58.7565C13.9642 57.662 12.6053 56.9113 11.1185 56.6033V56.5744L11.7166 50.5519L15.7179 52.7794C15.7385 52.7794 15.7385 52.8 15.7591 52.8C15.7797 52.8 15.7797 52.8206 15.8004 52.8206L19.8016 55.0275L15.0372 58.74ZM21.2866 53.4806H21.266L17.6772 51.48L26.711 35.0625H31.4135L21.2866 53.4806ZM42.9635 33H11.036C8.55487 32.8308 6.2406 31.6898 4.59561 29.8247C2.95061 27.9596 2.10766 25.521 2.24974 23.0381C2.15174 20.8343 2.8101 18.6633 4.1156 16.8851C5.4211 15.1069 7.29529 13.8285 9.42724 13.2619H9.46849C11.6 13.4232 13.5829 14.4148 14.9908 16.0232C16.3987 17.6316 17.1189 19.7284 16.9966 21.8625C16.9966 22.136 17.1053 22.3983 17.2987 22.5917C17.4921 22.7851 17.7544 22.8938 18.0279 22.8938C18.3014 22.8938 18.5637 22.7851 18.7571 22.5917C18.9505 22.3983 19.0591 22.136 19.0591 21.8625C19.1496 19.4114 18.3683 17.0076 16.8541 15.078C15.3399 13.1485 13.1908 11.8181 10.7885 11.3231C11.6933 8.69415 13.3744 6.40151 15.6096 4.74808C17.8449 3.09465 20.5292 2.15822 23.3079 2.0625C25.4754 2.06195 27.6039 2.63858 29.4747 3.73313C29.4954 3.75375 29.516 3.75375 29.5366 3.77438C30.5276 4.46662 31.3664 5.35441 32.0013 6.38306C32.6363 7.41172 33.0539 8.55947 33.2285 9.75563C33.2491 9.85875 33.2491 9.94125 33.2697 10.0444C33.2997 10.2924 33.4187 10.5211 33.6045 10.688C33.7904 10.8549 34.0306 10.9487 34.2804 10.9519H34.4041C34.6759 10.9153 34.9228 10.7742 35.0922 10.5585C35.2617 10.3428 35.3404 10.0696 35.3116 9.79688C35.3147 9.76781 35.3074 9.73858 35.291 9.71438C34.9932 7.1409 33.7777 4.76104 31.8672 3.01125C33.0143 2.39198 34.2968 2.06605 35.6004 2.0625C37.9836 2.21629 40.2175 3.27646 41.8438 5.0254C43.47 6.77435 44.3651 9.07941 44.3454 11.4675C43.1557 11.5973 42.0086 11.9844 40.9835 12.6019C40.3375 12.9548 39.741 13.3917 39.2097 13.9013C38.3399 14.7227 37.6147 15.685 37.0647 16.7475C37.0007 16.8674 36.9617 16.999 36.95 17.1344C36.9382 17.2699 36.954 17.4062 36.9964 17.5354C37.0388 17.6645 37.107 17.7837 37.1967 17.8858C37.2864 17.9879 37.3959 18.0707 37.5185 18.1294C37.6568 18.2084 37.813 18.251 37.9722 18.2531C38.1634 18.2554 38.3513 18.2046 38.5152 18.1062C38.6791 18.0079 38.8125 17.866 38.9004 17.6963C39.3526 16.8056 39.9683 16.008 40.7154 15.345C41.2175 14.8617 41.7959 14.4645 42.4272 14.1694C43.292 13.7323 44.243 13.4928 45.2116 13.4681C45.2322 13.4475 45.2322 13.4475 45.2529 13.4681C47.214 14.1632 48.9019 15.4664 50.0705 17.1878C51.2392 18.9092 51.8275 20.9589 51.7497 23.0381C51.8918 25.521 51.0489 27.9596 49.4039 29.8247C47.7589 31.6898 45.4446 32.8308 42.9635 33ZM41.8291 21.78C41.8892 21.61 41.9037 21.4273 41.8711 21.2499C41.8386 21.0726 41.7601 20.9069 41.6435 20.7694C41.5283 20.6214 41.3696 20.5132 41.1897 20.46C40.9271 20.378 40.6429 20.401 40.3968 20.524C40.1506 20.6471 39.9618 20.8607 39.8697 21.12C39.4774 22.2946 39.3232 23.5357 39.416 24.7706C39.416 24.7761 39.4138 24.7813 39.4099 24.7852C39.4061 24.7891 39.4008 24.7913 39.3954 24.7913C39.3747 24.8325 39.3747 24.8531 39.3541 24.8738L39.416 24.8325C39.4773 26.0452 39.8084 27.229 40.3854 28.2975C40.4717 28.4641 40.6018 28.604 40.7617 28.7021C40.9216 28.8002 41.1053 28.8529 41.2929 28.8544C41.4591 28.855 41.6225 28.8124 41.7672 28.7306C41.8877 28.6697 41.9947 28.5853 42.082 28.4823C42.1693 28.3793 42.235 28.2599 42.2754 28.1311C42.3158 28.0023 42.3299 27.8667 42.3171 27.7323C42.3042 27.598 42.2645 27.4675 42.2004 27.3488C41.7673 26.4932 41.5112 25.559 41.4474 24.6022C41.3836 23.6454 41.5134 22.6855 41.8291 21.78ZM15.0579 26.0288C14.1442 26.3203 13.1804 26.4213 12.2261 26.3255C11.2718 26.2297 10.3473 25.9392 9.50974 25.4719C9.39064 25.4065 9.25981 25.3654 9.12476 25.3508C8.9897 25.3361 8.85309 25.3483 8.72277 25.3867C8.59245 25.425 8.47098 25.4887 8.36535 25.5741C8.25972 25.6595 8.172 25.765 8.10724 25.8844C8.04269 26.0047 8.00268 26.1367 7.98954 26.2726C7.97639 26.4085 7.99037 26.5457 8.03066 26.6762C8.07096 26.8066 8.13676 26.9278 8.22426 27.0326C8.31176 27.1375 8.4192 27.2239 8.54037 27.2869C9.90061 28.0293 11.4251 28.4193 12.9747 28.4213C13.8994 28.4218 14.8184 28.2756 15.6972 27.9881C15.827 27.9477 15.9473 27.8818 16.051 27.7941C16.1548 27.7065 16.24 27.5989 16.3015 27.4778C16.3631 27.3566 16.3997 27.2244 16.4093 27.0889C16.4188 26.9534 16.4011 26.8173 16.3572 26.6888C16.2723 26.429 16.0877 26.2137 15.8441 26.0899C15.6005 25.9662 15.3177 25.9442 15.0579 26.0288ZM32.7747 24.0488C32.2836 23.5541 31.7369 23.1181 31.1454 22.7494C30.5344 22.3545 29.8848 22.0228 29.2066 21.7594C28.5815 21.5114 27.9315 21.3316 27.2679 21.2231C26.9023 21.1413 26.5288 21.0998 26.1541 21.0994C26.0016 21.0164 25.83 20.9747 25.6564 20.9783C25.4828 20.9819 25.3131 21.0308 25.1641 21.12H25.1435C25.0904 21.0993 25.0315 21.0993 24.9785 21.12C23.8274 21.2052 22.7052 21.5208 21.6785 22.0481C21.4554 22.1824 21.2913 22.3961 21.2192 22.6463C21.1472 22.8965 21.1724 23.1647 21.2899 23.3971C21.4074 23.6294 21.6084 23.8088 21.8527 23.899C22.0969 23.9893 22.3662 23.9839 22.6066 23.8838C22.9473 23.7008 23.3069 23.5555 23.6791 23.4506H23.6997C24.5065 23.2004 25.3528 23.1024 26.1954 23.1619C26.9741 23.2128 27.7399 23.3868 28.4641 23.6775C29.0603 23.9067 29.6278 24.2043 30.1554 24.5644C30.7354 24.9555 31.2683 25.4123 31.7435 25.9256C32.3442 26.5735 32.851 27.3025 33.2491 28.0913C33.3342 28.2648 33.4663 28.411 33.6304 28.5131C33.7945 28.6152 33.984 28.6691 34.1772 28.6688C34.3427 28.6643 34.505 28.622 34.6516 28.545C34.7715 28.4834 34.8779 28.3987 34.9647 28.2956C35.0515 28.1925 35.117 28.0732 35.1572 27.9447C35.1975 27.8161 35.2119 27.6808 35.1994 27.5466C35.187 27.4125 35.148 27.2821 35.0847 27.1631C34.5065 25.9956 33.7242 24.9409 32.7747 24.0488ZM26.1747 8.8275C26.383 8.68495 26.5317 8.47097 26.5928 8.2261C26.6539 7.98123 26.6231 7.72246 26.5062 7.4988C26.3892 7.27514 26.1944 7.10211 25.9584 7.01249C25.7225 6.92287 25.4619 6.92287 25.226 7.0125C24.3704 7.44569 23.4363 7.70185 22.4795 7.76564C21.5226 7.82943 20.5627 7.69954 19.6572 7.38375C19.5286 7.33826 19.3923 7.31873 19.2561 7.3263C19.1199 7.33387 18.9865 7.36839 18.8638 7.42785C18.741 7.48732 18.6312 7.57055 18.5409 7.67274C18.4505 7.77492 18.3813 7.89401 18.3372 8.02313C18.2574 8.28582 18.2813 8.56913 18.4041 8.8147C18.5269 9.06027 18.7392 9.2494 18.9972 9.34313C19.9823 9.66794 21.0125 9.835 22.0497 9.83813C23.487 9.84652 24.9041 9.49934 26.1747 8.8275Z" fill="white"/>
</svg>
